<svg width="200" height="200" viewBox="0 0 200 200" fill="none" xmlns="http://www.w3.org/2000/svg">
  <rect width="200" height="200" fill="#F3F4F6"/>
  <g transform="translate(40, 60)">
    <!-- Autoclave Body -->
    <rect x="20" y="20" width="80" height="50" rx="5" fill="#374151" stroke="#1F2937" stroke-width="2"/>
    
    <!-- Door -->
    <rect x="25" y="25" width="70" height="40" rx="3" fill="#6B7280" stroke="#374151" stroke-width="1"/>
    <rect x="27" y="27" width="66" height="36" rx="2" fill="#9CA3AF"/>
    
    <!-- Door Handle -->
    <rect x="85" y="40" width="8" height="10" rx="2" fill="#6B7280" stroke="#374151" stroke-width="1"/>
    
    <!-- Control Panel -->
    <rect x="25" y="75" width="70" height="15" rx="3" fill="#1F2937" stroke="#111827" stroke-width="1"/>
    
    <!-- Display Screen -->
    <rect x="30" y="78" width="40" height="9" rx="2" fill="#10B981"/>
    <text x="50" y="84" text-anchor="middle" font-family="Arial" font-size="6" fill="white">CLASS B</text>
    
    <!-- Control Buttons -->
    <circle cx="75" cy="82" r="3" fill="#EF4444" stroke="#DC2626" stroke-width="1"/>
    <circle cx="82" cy="82" r="3" fill="#F59E0B" stroke="#D97706" stroke-width="1"/>
    <circle cx="89" cy="82" r="3" fill="#10B981" stroke="#059669" stroke-width="1"/>
    
    <!-- Steam Vent -->
    <circle cx="60" cy="15" r="3" fill="#6B7280" stroke="#374151" stroke-width="1"/>
    <path d="M60 12 Q65 8 70 12" stroke="#6B7280" stroke-width="2" fill="none"/>
    <path d="M60 10 Q65 6 70 10" stroke="#6B7280" stroke-width="2" fill="none"/>
    
    <!-- Temperature Gauge -->
    <circle cx="25" cy="35" r="8" fill="#E5E7EB" stroke="#D1D5DB" stroke-width="1"/>
    <circle cx="25" cy="35" r="6" fill="#EF4444"/>
    <text x="25" y="38" text-anchor="middle" font-family="Arial" font-size="6" fill="white">134°</text>
    
    <!-- Pressure Indicator -->
    <rect x="15" y="50" width="8" height="15" rx="2" fill="#E5E7EB" stroke="#D1D5DB" stroke-width="1"/>
    <rect x="16" y="52" width="6" height="11" rx="1" fill="#3B82F6"/>
    <text x="19" y="60" text-anchor="middle" font-family="Arial" font-size="4" fill="#374151">2.1</text>
    
    <!-- Cycle Indicator -->
    <rect x="85" y="25" width="12" height="12" rx="2" fill="#E5E7EB" stroke="#D1D5DB" stroke-width="1"/>
    <text x="91" y="32" text-anchor="middle" font-family="Arial" font-size="6" fill="#374151">VAC</text>
  </g>
</svg> 